<svg width="20" height="20" viewBox="0 0 20 20" fill="none" xmlns="http://www.w3.org/2000/svg">
<mask id="mask0_500_911" style="mask-type:alpha" maskUnits="userSpaceOnUse" x="0" y="0" width="20" height="20">
<rect width="20" height="20" fill="#D9D9D9"/>
</mask>
<g mask="url(#mask0_500_911)">
<path d="M3.41659 8.33337C3.61103 6.90282 4.24645 5.71185 5.32284 4.76046C6.39922 3.80907 7.68047 3.33337 9.16659 3.33337C9.98603 3.33337 10.7534 3.48962 11.4687 3.80212C12.1839 4.11462 12.8055 4.54171 13.3333 5.08337V3.33337H14.9999V8.33337H9.99992V6.66671H12.4999C12.0971 6.16671 11.6145 5.76393 11.052 5.45837C10.4895 5.15282 9.86103 5.00004 9.16659 5.00004C8.16659 5.00004 7.28464 5.31601 6.52075 5.94796C5.75686 6.5799 5.2777 7.37504 5.08325 8.33337H3.41659ZM16.3333 17.5L12.6666 13.8334C12.1666 14.2084 11.6214 14.4966 11.0312 14.698C10.4409 14.8993 9.81936 15 9.16659 15C8.34714 15 7.57978 14.8438 6.8645 14.5313C6.14922 14.2188 5.5277 13.7917 4.99992 13.25V15H3.33325V10H8.33325V11.6667H5.83325C6.23603 12.1667 6.71867 12.5695 7.28117 12.875C7.84367 13.1806 8.47214 13.3334 9.16659 13.3334C10.1666 13.3334 11.0485 13.0174 11.8124 12.3855C12.5763 11.7535 13.0555 10.9584 13.2499 10H14.9166C14.8471 10.5 14.7221 10.9688 14.5416 11.4063C14.361 11.8438 14.1249 12.2639 13.8333 12.6667L17.4999 16.3334L16.3333 17.5Z" fill="white"/>
</g>
</svg>
