<svg width="20" height="20" viewBox="0 0 20 20" fill="none" xmlns="http://www.w3.org/2000/svg">
<path d="M9.16675 1.66663V18.3333H10.8334V1.66663H9.16675ZM5.83341 4.99996V15H3.33341V4.99996H5.83341ZM3.33341 3.33329C2.89139 3.33329 2.46746 3.50889 2.1549 3.82145C1.84234 4.13401 1.66675 4.55793 1.66675 4.99996V15C1.66675 15.442 1.84234 15.8659 2.1549 16.1785C2.46746 16.491 2.89139 16.6666 3.33341 16.6666H5.83341C6.27544 16.6666 6.69937 16.491 7.01193 16.1785C7.32449 15.8659 7.50008 15.442 7.50008 15V4.99996C7.50008 4.55793 7.32449 4.13401 7.01193 3.82145C6.69937 3.50889 6.27544 3.33329 5.83341 3.33329H3.33341ZM12.5001 4.99996C12.5001 4.55793 12.6757 4.13401 12.9882 3.82145C13.3008 3.50889 13.7247 3.33329 14.1667 3.33329H16.6667C17.1088 3.33329 17.5327 3.50889 17.8453 3.82145C18.1578 4.13401 18.3334 4.55793 18.3334 4.99996V15C18.3334 15.442 18.1578 15.8659 17.8453 16.1785C17.5327 16.491 17.1088 16.6666 16.6667 16.6666H14.1667C13.7247 16.6666 13.3008 16.491 12.9882 16.1785C12.6757 15.8659 12.5001 15.442 12.5001 15V4.99996Z" fill="white"/>
</svg>
