<svg width="14" height="14" viewBox="0 0 14 14" fill="none" xmlns="http://www.w3.org/2000/svg">
<mask id="mask0_9_7083" style="mask-type:alpha" maskUnits="userSpaceOnUse" x="0" y="0" width="14" height="14">
<rect width="14" height="14" fill="#D9D9D9"/>
</mask>
<g mask="url(#mask0_9_7083)">
<path d="M7.3355 12.4833C7.10216 12.7166 6.82508 12.8333 6.50425 12.8333C6.18341 12.8333 5.90633 12.7166 5.673 12.4833L1.50216 8.31246C1.27855 8.08885 1.16675 7.8142 1.16675 7.4885C1.16675 7.16281 1.27855 6.88815 1.50216 6.66454L6.6355 1.51663C6.74244 1.40968 6.86883 1.32461 7.01466 1.26142C7.1605 1.19822 7.31605 1.16663 7.48133 1.16663H11.6522C11.973 1.16663 12.2477 1.28086 12.4761 1.50933C12.7046 1.73781 12.8188 2.01246 12.8188 2.33329V6.50413C12.8188 6.6694 12.7872 6.82496 12.724 6.97079C12.6608 7.11663 12.5758 7.24302 12.4688 7.34996L7.3355 12.4833ZM10.1938 4.66663C10.4369 4.66663 10.6435 4.58156 10.8136 4.41142C10.9838 4.24128 11.0688 4.03468 11.0688 3.79163C11.0688 3.54857 10.9838 3.34197 10.8136 3.17183C10.6435 3.0017 10.4369 2.91663 10.1938 2.91663C9.95078 2.91663 9.74418 3.0017 9.57404 3.17183C9.4039 3.34197 9.31883 3.54857 9.31883 3.79163C9.31883 4.03468 9.4039 4.24128 9.57404 4.41142C9.74418 4.58156 9.95078 4.66663 10.1938 4.66663ZM6.50425 11.6666L11.6522 6.50413V2.33329H7.48133L2.33341 7.49579L6.50425 11.6666Z" fill="#707683"/>
</g>
</svg>
